<?xml version="1.0" encoding="utf-8"?>
<!-- Generator: Adobe Illustrator 20.0.0, SVG Export Plug-In . SVG Version: 6.00 Build 0)  -->
<svg version="1.1" id="Layer_1" xmlns="http://www.w3.org/2000/svg" xmlns:xlink="http://www.w3.org/1999/xlink" x="0px" y="0px"
	 viewBox="0 0 284.2 80.2" style="enable-background:new 0 0 284.2 80.2;" xml:space="preserve">
<style type="text/css">
	.st0{fill:#2A2C2C;}
</style>
<g>
	<g>
		<g>
			<g>
				<path class="st0" d="M105.5,57.6c0.1-0.8-0.3-1.4-0.9-1.4c-1.5,0-2.1,2.7-2.3,4.3c-0.2,1.5-0.5,4.1,1,4.1c0.7,0,1.3-0.7,1.5-1.6
					h0.4c-0.3,1.3-1.1,2.1-2,2.1c-1.8,0-1.6-2.7-1.3-4.6c0.3-1.9,1-4.8,2.9-4.8c0.8,0,1.3,0.8,1.2,1.9H105.5z"/>
			</g>
			<g>
				<path class="st0" d="M107.2,60.5c0.3-2.1,0.9-4.7,2.7-4.7c2,0,1.5,3.2,1.2,4.7c-0.6,3.9-1.6,4.7-2.7,4.7
					C107.4,65.2,106.6,64.4,107.2,60.5z M108.6,64.7c0.9,0,1.6-0.9,2.1-4.2c0.5-3.4,0-4.2-0.8-4.2c-1,0-1.7,1.1-2.2,4.2
					C107.2,63.9,107.7,64.7,108.6,64.7z"/>
			</g>
			<g>
				<path class="st0" d="M114.2,56.8L114.2,56.8l-1.3,8.3h-0.4l1.4-9.1h0.6l1.1,7.8l0,0l1.2-7.7h0.4l-1.4,9.2h-0.5L114.2,56.8z"/>
			</g>
			<g>
				<path class="st0" d="M122.1,57.6c0.1-0.8-0.3-1.4-0.9-1.4c-1.5,0-2.1,2.7-2.3,4.3c-0.2,1.5-0.5,4.1,1,4.1c0.7,0,1.3-0.7,1.5-1.6
					h0.4c-0.3,1.3-1.1,2.1-2,2.1c-1.8,0-1.6-2.7-1.3-4.6c0.3-1.9,1-4.8,2.9-4.8c0.8,0,1.3,0.8,1.2,1.9H122.1z"/>
			</g>
			<g>
				<path class="st0" d="M128.3,56.4h-2.8l-0.6,3.7h2l-0.1,0.5h-2l-0.6,3.9h2.9L127,65h-3.3l1.4-9.1h3.2L128.3,56.4z"/>
			</g>
			<g>
				<path class="st0" d="M130.6,55.9h1.5c1.4,0,1.6,1.3,1.4,2.7c-0.3,1.8-1.2,2.7-2.5,2.7h-0.8l-0.6,3.7h-0.4L130.6,55.9z M131,56.4
					l-0.7,4.4h0.8c1.2,0,1.8-0.9,2-2.2c0.3-1.7-0.3-2.2-1-2.2H131z"/>
			</g>
			<g>
				<path class="st0" d="M139.6,56.4h-1.9l-1.3,8.6H136l1.3-8.6h-1.9l0.1-0.5h4.3L139.6,56.4z"/>
			</g>
			<g>
				<path class="st0" d="M149.9,57.2c-0.3-0.5-0.7-1-1.3-1c-0.7,0-1.3,0.6-1.5,1.6c-0.1,0.7,0,1.2,0.7,1.9l0.5,0.5
					c0.9,0.9,1.3,1.4,1.1,2.5c-0.2,1.6-1.1,2.5-2.3,2.5c-0.8,0-1.3-0.5-1.7-1.3l0.4-0.4c0.2,0.7,0.7,1.2,1.4,1.2
					c0.8,0,1.5-0.8,1.7-1.9c0.1-0.9,0.1-1.2-1-2.2l-0.5-0.5c-0.6-0.5-1-1.1-0.8-2.2c0.2-1.4,1.1-2.2,2-2.2c0.6,0,1.2,0.5,1.5,1
					L149.9,57.2z"/>
			</g>
			<g>
				<path class="st0" d="M156.3,56.4h-1.9L153,65h-0.4l1.3-8.6H152l0.1-0.5h4.3L156.3,56.4z"/>
			</g>
			<g>
				<path class="st0" d="M157.1,60.5c0.3-2.1,0.9-4.7,2.7-4.7c2,0,1.5,3.2,1.2,4.7c-0.6,3.9-1.6,4.7-2.7,4.7
					C157.2,65.2,156.5,64.4,157.1,60.5z M158.4,64.7c0.9,0,1.6-0.9,2.1-4.2c0.5-3.4,0-4.2-0.8-4.2c-1,0-1.7,1.1-2.2,4.2
					C157,63.9,157.5,64.7,158.4,64.7z"/>
			</g>
			<g>
				<path class="st0" d="M163.8,55.9h1.6c1.1,0,1.6,1,1.4,2.5c-0.2,1.1-0.8,2.2-1.7,2.5l1.2,4.1h-0.5l-1-3.9h-1.2l-0.6,3.9h-0.4
					L163.8,55.9z M163.5,60.6h1.1c0.6,0,1.5-0.6,1.7-2.2c0.2-1.1-0.1-1.9-1-1.9h-1.1L163.5,60.6z"/>
			</g>
			<g>
				<path class="st0" d="M172.6,56.4h-2.8l-0.6,3.7h2l-0.1,0.5h-2l-0.6,3.9h2.9l-0.1,0.5H168l1.4-9.1h3.2L172.6,56.4z"/>
			</g>
		</g>
		<g>
			<g>
				<path class="st0" d="M8.8,12.8h5.1v23.5h11.4v5H8.8V12.8z"/>
			</g>
			<g>
				<path class="st0" d="M49.3,12.8l8.4,28.5h-5.5L50.7,36h-9.3l-1.5,5.3h-5.5l8.4-28.5H49.3z M42.8,31h6.6L46,19.4L42.8,31z"/>
			</g>
			<g>
				<path class="st0" d="M77.5,30.4v10.9h-5.6V30.5l-8.4-17.7h5.8l5.5,11.9l5.5-11.9h5.7L77.5,30.4z"/>
			</g>
			<g>
				<path class="st0" d="M106.7,41.7c-1.7,0-3.2-0.3-4.7-1c-1.4-0.7-2.7-1.6-3.8-2.9c-1.1-1.3-1.9-2.8-2.5-4.6
					c-0.6-1.8-0.9-3.9-0.9-6.2c0-2.2,0.3-4.3,0.9-6.1c0.6-1.8,1.4-3.3,2.4-4.6c1-1.3,2.2-2.2,3.7-2.9c1.4-0.7,2.9-1,4.6-1
					c1.7,0,3.2,0.3,4.6,1c1.4,0.7,2.6,1.6,3.7,2.9c1,1.3,1.8,2.8,2.4,4.6c0.6,1.8,0.9,3.8,0.9,6.1c0,2.3-0.3,4.3-0.8,6.1
					c-0.6,1.8-1.3,3.4-2.3,4.6c-1,1.3-2.2,2.2-3.6,2.9C109.9,41.4,108.4,41.7,106.7,41.7z M106.5,17.5c-1.9,0-3.5,0.8-4.7,2.4
					c-1.2,1.6-1.8,4-1.8,7.2c0,1.6,0.2,3,0.5,4.2c0.3,1.2,0.8,2.2,1.4,3c0.6,0.8,1.3,1.4,2.1,1.8c0.8,0.4,1.6,0.6,2.5,0.6
					c0.9,0,1.8-0.2,2.6-0.6c0.8-0.4,1.5-1,2.1-1.8c0.6-0.8,1-1.8,1.4-3c0.3-1.2,0.5-2.6,0.5-4.2c0-3.2-0.6-5.6-1.7-7.2
					C110.2,18.2,108.6,17.5,106.5,17.5z"/>
			</g>
			<g>
				<path class="st0" d="M130.5,12.8h5.1v23.5H147v5h-16.6V12.8z"/>
			</g>
			<g>
				<path class="st0" d="M171,12.8l8.4,28.5h-5.5l-1.5-5.3h-9.3l-1.5,5.3h-5.5l8.4-28.5H171z M164.4,31h6.6l-3.3-11.6L164.4,31z"/>
			</g>
			<g>
				<path class="st0" d="M195.2,22.5v18.8h-5.1V12.8h5.9l9.2,18v-18h5.1v28.5h-5.5L195.2,22.5z"/>
			</g>
			<g>
				<path class="st0" d="M223.2,41.3V12.8h8.3c1.9,0,3.7,0.4,5.4,1.1c1.6,0.7,3.1,1.7,4.2,3c1.2,1.3,2.1,2.8,2.8,4.5
					c0.7,1.7,1,3.6,1,5.6c0,2.3-0.3,4.3-1,6s-1.6,3.3-2.8,4.5c-1.2,1.2-2.6,2.2-4.3,2.8c-1.7,0.7-3.5,1-5.4,1H223.2z M228.3,17.9
					v18.3h2.2c1.4,0,2.7-0.2,3.8-0.7c1.1-0.5,2.1-1.1,2.9-1.9c0.8-0.8,1.4-1.8,1.8-2.9c0.4-1.1,0.6-2.3,0.6-3.7
					c0-1.3-0.2-2.6-0.6-3.7c-0.4-1.1-1-2.1-1.8-2.9c-0.8-0.8-1.7-1.4-2.9-1.9c-1.1-0.5-2.4-0.7-3.8-0.7H228.3z"/>
			</g>
			<g>
				<path class="st0" d="M268.7,12.8l8.4,28.5h-5.5L270,36h-9.3l-1.5,5.3h-5.5l8.4-28.5H268.7z M262.1,31h6.6l-3.3-11.6L262.1,31z"
					/>
			</g>
		</g>
		<g>
			<rect x="132.3" y="68.1" class="st0" width="7.6" height="1.3"/>
		</g>
	</g>
</g>
</svg>
